HIERARCHY
ROOT Hips
{
	OFFSET 0.000000 0.000000 0.000000
	CHANNELS 6 Xposition Yposition Zposition Xrotation Yrotation Zrotation
	JOINT LeftUpLeg_virtual
	{
		OFFSET 0.000000 0.000000 0.000000
		CHANNELS 3 Xrotation Yrotation Zrotation
		JOINT LeftUpLeg
		{
			OFFSET 11.394100 -6.187798 -0.413800
			CHANNELS 3 Xrotation Yrotation Zrotation
			JOINT LeftLeg
			{
				OFFSET 0.430247 -32.302673 3.732800
				CHANNELS 3 Xrotation Yrotation Zrotation
				JOINT LeftFoot
				{
					OFFSET -0.430247 -48.264931 -6.423300
					CHANNELS 3 Xrotation Yrotation Zrotation
					JOINT LeftToeBase
					{
						OFFSET 4.230900 -16.068199 23.438400
						CHANNELS 3 Xrotation Yrotation Zrotation
						JOINT LeftToe_End
						{
							OFFSET 4.510700 0.695400 19.974600
							CHANNELS 3 Xrotation Yrotation Zrotation
							End Site
							{
								OFFSET 0 0 0
							}
						}
					}
				}
			}
		}
	}
	JOINT RightUpLeg_virtual
	{
		OFFSET 0.000000 0.000000 0.000000
		CHANNELS 3 Xrotation Yrotation Zrotation
		JOINT RightUpLeg
		{
			OFFSET -11.333700 -6.187798 -0.413800
			CHANNELS 3 Xrotation Yrotation Zrotation
			JOINT RightLeg
			{
				OFFSET -0.430392 -32.302628 3.733000
				CHANNELS 3 Xrotation Yrotation Zrotation
				JOINT RightFoot
				{
					OFFSET 0.430392 -48.264973 -6.423500
					CHANNELS 3 Xrotation Yrotation Zrotation
					JOINT RightToeBase
					{
						OFFSET -4.230900 -16.068199 23.438400
						CHANNELS 3 Xrotation Yrotation Zrotation
						JOINT RightToe_End
						{
							OFFSET -4.510700 0.695400 19.974600
							CHANNELS 3 Xrotation Yrotation Zrotation
							End Site
							{
								OFFSET 0 0 0
							}
						}
					}
				}
			}
		}
	}
	JOINT Spine_virtual
	{
		OFFSET 0.000000 0.000000 0.000000
		CHANNELS 3 Xrotation Yrotation Zrotation
		JOINT Spine
		{
			OFFSET -0.002400 12.777504 0.315300
			CHANNELS 3 Xrotation Yrotation Zrotation
			JOINT Spine1
			{
				OFFSET -0.002067 5.816869 0.032633
				CHANNELS 3 Xrotation Yrotation Zrotation
				JOINT Spine1_split
				{
					OFFSET -0.002067 5.816869 0.032633
					CHANNELS 3 Xrotation Yrotation Zrotation
					JOINT Spine2
					{
						OFFSET -0.002067 5.816869 0.032633
						CHANNELS 3 Xrotation Yrotation Zrotation
						JOINT Neck_virtual
						{
							OFFSET 0.000000 0.000000 0.000000
							CHANNELS 3 Xrotation Yrotation Zrotation
							JOINT Neck
							{
								OFFSET -0.003700 21.199493 -0.826900
								CHANNELS 3 Xrotation Yrotation Zrotation
								JOINT Head
								{
									OFFSET 0.000000 20.442200 4.834800
									CHANNELS 3 Xrotation Yrotation Zrotation
									JOINT HeadTop_End
									{
										OFFSET 0.000000 34.668396 4.968400
										CHANNELS 3 Xrotation Yrotation Zrotation
										End Site
										{
											OFFSET 0 0 0
										}
									}
								}
							}
						}
						JOINT LeftShoulder_virtual
						{
							OFFSET 0.000000 0.000000 0.000000
							CHANNELS 3 Xrotation Yrotation Zrotation
							JOINT LeftShoulder
							{
								OFFSET 3.288150 8.794197 -1.372250
								CHANNELS 3 Xrotation Yrotation Zrotation
								JOINT LeftShoulder_split
								{
									OFFSET 3.288150 8.794197 -1.372250
									CHANNELS 3 Xrotation Yrotation Zrotation
									JOINT LeftArm
									{
										OFFSET 11.953299 -2.279007 -0.146200
										CHANNELS 3 Xrotation Yrotation Zrotation
										JOINT LeftForeArm
										{
											OFFSET 18.448900 0.000000 0.000000
											CHANNELS 3 Xrotation Yrotation Zrotation
											JOINT LeftHand
											{
												OFFSET 29.527798 0.000000 0.000000
												CHANNELS 3 Xrotation Yrotation Zrotation
												End Site
												{
													OFFSET 0 0 0
												}
											}
										}
									}
								}
							}
						}
						JOINT RightShoulder_virtual
						{
							OFFSET 0.000000 0.000000 0.000000
							CHANNELS 3 Xrotation Yrotation Zrotation
							JOINT RightShoulder
							{
								OFFSET -3.249400 8.794197 -1.372250
								CHANNELS 3 Xrotation Yrotation Zrotation
								JOINT RightShoulder_split
								{
									OFFSET -3.249400 8.794197 -1.372250
									CHANNELS 3 Xrotation Yrotation Zrotation
									JOINT RightArm
									{
										OFFSET -11.953299 -2.279007 -0.146200
										CHANNELS 3 Xrotation Yrotation Zrotation
										JOINT RightForeArm
										{
											OFFSET -18.448900 0.000000 0.000000
											CHANNELS 3 Xrotation Yrotation Zrotation
											JOINT RightHand
											{
												OFFSET -29.527802 0.000000 0.000000
												CHANNELS 3 Xrotation Yrotation Zrotation
												End Site
												{
													OFFSET 0 0 0
												}
											}
										}
									}
								}
							}
						}
					}
				}
			}
		}
	}
}
MOTION
Frames: 4
Frame Time: 0.03333333
0.202474 72.583382 4.046082 0.000000 0.000000 0.000000 -12.122560 -76.194510 -8.919087 -45.941611 12.785233 55.154344 42.381023 -3.228342 -3.531322 10.263674 -4.354448 -27.874658 -4.002476 0.427663 -0.645035 0.000000 0.000000 0.000000 -13.737480 -74.568672 -9.623019 -43.575292 6.695884 -29.692564 63.926418 11.769244 -6.770607 -16.097733 -6.327561 26.298551 4.830346 1.693546 1.250427 0.000000 0.000000 0.000000 -12.335044 -75.996496 -8.884813 4.567613 -2.132545 -1.974028 4.069093 -0.322968 -3.244367 0.472128 0.696470 0.287230 0.000000 0.000000 0.000000 5.792891 0.045728 -2.948825 -6.307474 21.107781 6.027931 0.725421 18.309639 -8.442524 0.000000 0.000000 0.000000 6.043359 -0.158583 -3.355913 -0.008358 -5.295036 -17.953357 -1.997183 -1.956823 -1.254310 -44.086740 -23.044560 -5.372503 -6.241569 -32.540619 -4.356833 0.000000 0.000000 0.000000 5.205496 -0.155214 -2.961277 2.078987 16.106571 5.399625 7.859605 3.394757 2.450124 18.992914 74.706369 -7.553165 76.676202 86.551556 -87.341993 0.000000 0.000000 0.000000 
0.168366 72.929840 3.907162 0.000000 0.000000 0.000000 -12.943104 -76.037627 -10.143530 -44.801017 12.506600 55.105147 42.092164 -3.123113 -3.576612 9.950565 -3.639068 -27.251838 -3.606517 0.342569 -0.595808 0.000000 0.000000 0.000000 -15.057927 -74.681425 -11.117764 -43.783183 6.815707 -29.309892 62.462230 11.973215 -6.552278 -15.571595 -6.187273 26.800448 4.487910 1.854036 1.189261 0.000000 0.000000 0.000000 -12.799162 -76.374554 -9.804462 4.071991 -2.018336 -1.747494 3.828716 -0.302989 -3.194693 -0.074217 0.849359 0.299773 0.000000 0.000000 0.000000 5.621851 -0.089673 -2.884288 -5.918192 21.216944 6.038983 1.304392 18.784221 -8.859307 0.000000 0.000000 0.000000 5.734818 -0.176751 -3.249416 -0.109484 -5.336483 -18.217708 -2.015997 -0.772452 -1.960206 -44.183787 -23.113439 -5.940671 -5.943253 -34.116358 -4.074638 0.000000 0.000000 0.000000 5.082414 -0.168034 -2.976490 2.090568 16.162948 5.217461 8.349142 1.436687 2.232336 17.867884 74.293259 -5.662723 64.879407 86.733075 -75.494566 0.000000 0.000000 0.000000 
0.314134 73.675308 3.634541 0.000000 0.000000 0.000000 -15.968202 -76.538349 -13.645914 -42.609961 12.244679 54.947000 40.752969 -2.759762 -3.810235 10.191137 -2.589762 -26.451134 -3.218200 0.177995 -0.676914 0.000000 0.000000 0.000000 -17.661790 -75.395993 -14.120656 -44.375032 6.914250 -28.958537 60.178611 12.455028 -6.271223 -13.513709 -4.969086 27.491540 4.762322 1.993855 1.328973 0.000000 0.000000 0.000000 -15.569647 -77.119789 -13.110553 3.587270 -1.601251 -1.153691 3.887625 -0.307469 -2.991085 -0.194897 0.411329 0.099858 0.000000 0.000000 0.000000 5.750638 -0.228036 -2.699186 -6.011059 21.470488 6.259783 2.160073 20.250451 -9.396612 0.000000 0.000000 0.000000 5.646335 -0.250814 -2.995248 -0.406329 -5.691489 -18.696451 -2.694491 0.080008 -2.193376 -42.181667 -21.797859 -7.319621 -5.923811 -35.843569 -4.342891 0.000000 0.000000 0.000000 5.134683 -0.163565 -2.810570 2.095577 15.618182 5.375155 7.537359 0.706960 2.172700 15.557624 71.751349 -1.340237 41.485681 86.049032 -51.750205 0.000000 0.000000 0.000000 
0.535121 74.719704 3.365124 0.000000 0.000000 0.000000 -21.098319 -77.564284 -19.228533 -39.615295 12.088338 54.684192 38.687042 -2.239731 -4.184685 11.098873 -1.654031 -25.638553 -4.105126 -0.104190 -0.292259 0.000000 0.000000 0.000000 -20.952232 -76.143236 -17.957119 -44.908863 6.946021 -28.593383 57.859174 12.840960 -5.942659 -10.649436 -3.227242 28.100887 5.385458 2.100529 1.779488 0.000000 0.000000 0.000000 -19.791708 -77.615142 -17.840094 3.274924 -0.978985 -0.343877 4.185579 -0.346414 -2.654728 0.341226 -0.403228 0.364075 0.000000 0.000000 0.000000 5.969826 -0.348989 -2.450613 -6.431573 21.674021 6.640874 3.256703 22.466973 -10.003112 0.000000 0.000000 0.000000 5.808261 -0.367730 -2.678443 -0.822463 -6.552377 -19.486227 -3.326752 0.459107 -2.110559 -37.778347 -19.855672 -9.488212 -6.055063 -38.542266 -5.000782 0.000000 0.000000 0.000000 5.365300 -0.124788 -2.521493 2.100316 14.754076 5.941880 5.838132 1.334502 2.067133 13.245388 67.403776 4.280609 23.750296 84.268374 -33.329462 0.000000 0.000000 0.000000 
